<svg xmlns="http://www.w3.org/2000/svg" xmlns:xlink="http://www.w3.org/1999/xlink" width="500" zoomAndPan="magnify" viewBox="0 0 375 374.999991" height="500" preserveAspectRatio="xMidYMid meet" version="1.0"><defs><g/><clipPath id="5523f8aa83"><path d="M 99.617188 136.101562 L 169.367188 136.101562 L 169.367188 167.601562 L 99.617188 167.601562 Z M 99.617188 136.101562 " clip-rule="nonzero"/></clipPath><clipPath id="90c9099a74"><path d="M 115 136.101562 L 154 136.101562 L 154 167.601562 L 115 167.601562 Z M 115 136.101562 " clip-rule="nonzero"/></clipPath></defs><g clip-path="url(#5523f8aa83)"><path fill="#ff9800" d="M 153.316406 136.101562 C 142.582031 136.101562 132.253906 149.375 131.820312 149.9375 L 131.988281 150.066406 C 129.519531 153.285156 122.007812 161.300781 115.613281 161.300781 C 110.378906 161.300781 106.121094 157.0625 106.121094 151.851562 C 106.121094 146.746094 110.289062 142.507812 115.414062 142.40625 L 115.285156 136.105469 C 106.742188 136.277344 99.792969 143.34375 99.792969 151.851562 C 99.792969 160.535156 106.890625 167.601562 115.613281 167.601562 C 126.378906 167.601562 136.058594 155.160156 137.128906 153.742188 L 136.964844 153.621094 C 139.539062 150.359375 147.136719 142.402344 153.316406 142.402344 C 158.550781 142.402344 162.808594 146.640625 162.808594 151.851562 C 162.808594 157.0625 158.550781 161.300781 153.316406 161.300781 L 153.316406 167.601562 C 162.039062 167.601562 169.136719 160.535156 169.136719 151.851562 C 169.136719 143.167969 162.039062 136.101562 153.316406 136.101562 Z M 153.316406 136.101562 " fill-opacity="1" fill-rule="nonzero"/></g><g clip-path="url(#90c9099a74)"><path fill="#ff9800" d="M 153.316406 167.601562 C 142.554688 167.601562 132.871094 155.160156 131.800781 153.742188 L 129.957031 151.292969 C 126.503906 147.578125 120.589844 142.402344 115.613281 142.402344 L 115.40625 142.40625 L 115.292969 136.105469 L 115.613281 136.101562 C 126.09375 136.101562 136.007812 148.515625 137.101562 149.929688 L 139.519531 153.050781 C 142.96875 156.6875 148.464844 161.300781 153.316406 161.300781 Z M 153.316406 167.601562 " fill-opacity="1" fill-rule="nonzero"/></g><path fill="#ffde59" d="M 134.464844 156.898438 C 133.042969 155.351562 132.09375 154.128906 131.800781 153.742188 L 130.433594 151.929688 C 129.234375 153.28125 127.660156 154.882812 125.878906 156.382812 L 126.738281 157.523438 C 127.261719 158.210938 128.351562 159.601562 129.90625 161.285156 C 131.71875 159.765625 133.261719 158.21875 134.464844 156.898438 Z M 134.464844 156.898438 " fill-opacity="1" fill-rule="nonzero"/><path fill="#ffde59" d="M 137.101562 149.929688 L 138.535156 151.777344 C 139.179688 151.0625 139.921875 150.285156 140.75 149.480469 L 139.605469 148.003906 C 139.121094 147.382812 138.121094 146.132812 136.710938 144.617188 C 135.867188 145.417969 135.117188 146.175781 134.46875 146.871094 C 135.871094 148.375 136.808594 149.550781 137.101562 149.929688 Z M 137.101562 149.929688 " fill-opacity="1" fill-rule="nonzero"/><g fill="#000000" fill-opacity="1"><g transform="translate(173.081158, 150.748549)"><g><path d="M 0.6875 -9.453125 L 3.421875 -9.453125 C 4.734375 -9.453125 5.851562 -9 6.78125 -8.09375 C 7.71875 -7.195312 8.1875 -6.078125 8.1875 -4.734375 C 8.1875 -3.367188 7.722656 -2.238281 6.796875 -1.34375 C 5.867188 -0.445312 4.742188 0 3.421875 0 L 0.6875 0 Z M 2.84375 -1.921875 L 3.171875 -1.921875 C 3.960938 -1.921875 4.609375 -2.1875 5.109375 -2.71875 C 5.609375 -3.25 5.859375 -3.914062 5.859375 -4.71875 C 5.859375 -5.519531 5.609375 -6.1875 5.109375 -6.71875 C 4.609375 -7.257812 3.960938 -7.53125 3.171875 -7.53125 L 2.84375 -7.53125 Z M 2.84375 -1.921875 "/></g></g></g><g fill="#000000" fill-opacity="1"><g transform="translate(181.531534, 150.748549)"><g><path d="M 6.625 -2.65625 L 2.375 -2.65625 C 2.375 -2.238281 2.503906 -1.929688 2.765625 -1.734375 C 3.035156 -1.535156 3.328125 -1.4375 3.640625 -1.4375 C 3.972656 -1.4375 4.234375 -1.476562 4.421875 -1.5625 C 4.609375 -1.65625 4.828125 -1.832031 5.078125 -2.09375 L 6.546875 -1.359375 C 5.929688 -0.335938 4.914062 0.171875 3.5 0.171875 C 2.613281 0.171875 1.851562 -0.128906 1.21875 -0.734375 C 0.582031 -1.347656 0.265625 -2.082031 0.265625 -2.9375 C 0.265625 -3.789062 0.582031 -4.519531 1.21875 -5.125 C 1.851562 -5.738281 2.613281 -6.046875 3.5 -6.046875 C 4.425781 -6.046875 5.179688 -5.773438 5.765625 -5.234375 C 6.347656 -4.703125 6.640625 -3.9375 6.640625 -2.9375 C 6.640625 -2.789062 6.632812 -2.695312 6.625 -2.65625 Z M 2.421875 -3.78125 L 4.65625 -3.78125 C 4.613281 -4.082031 4.492188 -4.316406 4.296875 -4.484375 C 4.109375 -4.648438 3.859375 -4.734375 3.546875 -4.734375 C 3.210938 -4.734375 2.945312 -4.644531 2.75 -4.46875 C 2.550781 -4.289062 2.441406 -4.0625 2.421875 -3.78125 Z M 2.421875 -3.78125 "/></g></g></g><g fill="#000000" fill-opacity="1"><g transform="translate(188.436108, 150.748549)"><g><path d="M 2.171875 -5.875 L 3.609375 -2.6875 L 5.046875 -5.875 L 7.4375 -5.875 L 4.296875 0 L 2.921875 0 L -0.234375 -5.875 Z M 2.171875 -5.875 "/></g></g></g><g fill="#000000" fill-opacity="1"><g transform="translate(195.649843, 150.748549)"><g><path d="M 0.265625 -4.734375 C 0.265625 -6.097656 0.726562 -7.253906 1.65625 -8.203125 C 2.59375 -9.148438 3.71875 -9.625 5.03125 -9.625 C 6.351562 -9.625 7.472656 -9.148438 8.390625 -8.203125 C 9.316406 -7.265625 9.78125 -6.109375 9.78125 -4.734375 C 9.78125 -3.347656 9.328125 -2.179688 8.421875 -1.234375 C 7.515625 -0.296875 6.382812 0.171875 5.03125 0.171875 C 3.644531 0.171875 2.503906 -0.296875 1.609375 -1.234375 C 0.710938 -2.171875 0.265625 -3.335938 0.265625 -4.734375 Z M 2.59375 -4.734375 C 2.59375 -4.234375 2.664062 -3.78125 2.8125 -3.375 C 2.96875 -2.96875 3.234375 -2.617188 3.609375 -2.328125 C 3.992188 -2.046875 4.46875 -1.90625 5.03125 -1.90625 C 5.832031 -1.90625 6.4375 -2.179688 6.84375 -2.734375 C 7.25 -3.285156 7.453125 -3.953125 7.453125 -4.734375 C 7.453125 -5.503906 7.242188 -6.164062 6.828125 -6.71875 C 6.410156 -7.269531 5.8125 -7.546875 5.03125 -7.546875 C 4.25 -7.546875 3.644531 -7.269531 3.21875 -6.71875 C 2.800781 -6.164062 2.59375 -5.503906 2.59375 -4.734375 Z M 2.59375 -4.734375 "/></g></g></g><g fill="#000000" fill-opacity="1"><g transform="translate(205.691819, 150.748549)"><g><path d="M 6.734375 -5.140625 C 7.285156 -4.546875 7.5625 -3.8125 7.5625 -2.9375 C 7.5625 -2.070312 7.285156 -1.335938 6.734375 -0.734375 C 6.179688 -0.128906 5.484375 0.171875 4.640625 0.171875 C 3.859375 0.171875 3.21875 -0.0703125 2.71875 -0.5625 L 2.71875 2.984375 L 0.6875 2.984375 L 0.6875 -5.875 L 2.6875 -5.875 L 2.6875 -5.21875 L 2.71875 -5.21875 C 3.21875 -5.769531 3.859375 -6.046875 4.640625 -6.046875 C 5.484375 -6.046875 6.179688 -5.742188 6.734375 -5.140625 Z M 5 -1.953125 C 5.269531 -2.210938 5.40625 -2.539062 5.40625 -2.9375 C 5.40625 -3.34375 5.28125 -3.671875 5.03125 -3.921875 C 4.78125 -4.179688 4.445312 -4.3125 4.03125 -4.3125 C 3.632812 -4.3125 3.304688 -4.179688 3.046875 -3.921875 C 2.796875 -3.660156 2.671875 -3.332031 2.671875 -2.9375 C 2.671875 -2.539062 2.800781 -2.210938 3.0625 -1.953125 C 3.320312 -1.691406 3.644531 -1.5625 4.03125 -1.5625 C 4.414062 -1.5625 4.738281 -1.691406 5 -1.953125 Z M 5 -1.953125 "/></g></g></g><g fill="#000000" fill-opacity="1"><g transform="translate(213.512425, 150.748549)"><g><path d="M 3.234375 -6.046875 C 3.578125 -6.046875 3.910156 -6.003906 4.234375 -5.921875 C 4.566406 -5.847656 4.8125 -5.773438 4.96875 -5.703125 L 5.21875 -5.59375 L 4.546875 -4.265625 C 4.085938 -4.503906 3.648438 -4.625 3.234375 -4.625 C 3.003906 -4.625 2.84375 -4.597656 2.75 -4.546875 C 2.65625 -4.503906 2.609375 -4.410156 2.609375 -4.265625 C 2.609375 -4.234375 2.613281 -4.203125 2.625 -4.171875 C 2.632812 -4.148438 2.648438 -4.125 2.671875 -4.09375 C 2.691406 -4.0625 2.710938 -4.035156 2.734375 -4.015625 C 2.753906 -4.003906 2.785156 -3.984375 2.828125 -3.953125 C 2.867188 -3.929688 2.90625 -3.914062 2.9375 -3.90625 C 2.96875 -3.894531 3.007812 -3.878906 3.0625 -3.859375 C 3.125 -3.835938 3.171875 -3.820312 3.203125 -3.8125 C 3.234375 -3.800781 3.285156 -3.78125 3.359375 -3.75 C 3.429688 -3.726562 3.488281 -3.710938 3.53125 -3.703125 C 3.757812 -3.640625 3.960938 -3.566406 4.140625 -3.484375 C 4.316406 -3.398438 4.503906 -3.285156 4.703125 -3.140625 C 4.898438 -2.992188 5.050781 -2.804688 5.15625 -2.578125 C 5.257812 -2.359375 5.3125 -2.109375 5.3125 -1.828125 C 5.3125 -0.492188 4.382812 0.171875 2.53125 0.171875 C 2.113281 0.171875 1.710938 0.109375 1.328125 -0.015625 C 0.953125 -0.148438 0.679688 -0.28125 0.515625 -0.40625 L 0.265625 -0.625 L 1.09375 -2 C 1.144531 -1.945312 1.222656 -1.882812 1.328125 -1.8125 C 1.429688 -1.738281 1.609375 -1.640625 1.859375 -1.515625 C 2.117188 -1.390625 2.347656 -1.328125 2.546875 -1.328125 C 2.960938 -1.328125 3.171875 -1.46875 3.171875 -1.75 C 3.171875 -1.882812 3.117188 -1.988281 3.015625 -2.0625 C 2.910156 -2.132812 2.726562 -2.210938 2.46875 -2.296875 C 2.207031 -2.390625 2.003906 -2.472656 1.859375 -2.546875 C 1.492188 -2.742188 1.203125 -2.960938 0.984375 -3.203125 C 0.773438 -3.441406 0.671875 -3.757812 0.671875 -4.15625 C 0.671875 -4.75 0.898438 -5.210938 1.359375 -5.546875 C 1.828125 -5.878906 2.453125 -6.046875 3.234375 -6.046875 Z M 3.234375 -6.046875 "/></g></g></g><g fill="#000000" fill-opacity="1"><g transform="translate(219.146009, 150.748549)"><g/></g></g><g fill="#000000" fill-opacity="1"><g transform="translate(222.271961, 150.748549)"><g><path d="M 5.71875 -1.953125 C 6.039062 -1.953125 6.359375 -2 6.671875 -2.09375 C 6.984375 -2.195312 7.210938 -2.289062 7.359375 -2.375 L 7.578125 -2.53125 L 8.484375 -0.703125 C 8.453125 -0.679688 8.410156 -0.648438 8.359375 -0.609375 C 8.304688 -0.566406 8.179688 -0.492188 7.984375 -0.390625 C 7.796875 -0.285156 7.585938 -0.195312 7.359375 -0.125 C 7.140625 -0.0507812 6.847656 0.015625 6.484375 0.078125 C 6.128906 0.140625 5.765625 0.171875 5.390625 0.171875 C 4.503906 0.171875 3.664062 -0.0390625 2.875 -0.46875 C 2.09375 -0.90625 1.460938 -1.5 0.984375 -2.25 C 0.503906 -3.007812 0.265625 -3.828125 0.265625 -4.703125 C 0.265625 -5.367188 0.40625 -6.003906 0.6875 -6.609375 C 0.96875 -7.222656 1.34375 -7.75 1.8125 -8.1875 C 2.28125 -8.625 2.828125 -8.972656 3.453125 -9.234375 C 4.078125 -9.492188 4.722656 -9.625 5.390625 -9.625 C 5.992188 -9.625 6.550781 -9.550781 7.0625 -9.40625 C 7.582031 -9.257812 7.953125 -9.113281 8.171875 -8.96875 L 8.484375 -8.75 L 7.578125 -6.921875 C 7.515625 -6.960938 7.429688 -7.015625 7.328125 -7.078125 C 7.222656 -7.148438 7.007812 -7.238281 6.6875 -7.34375 C 6.363281 -7.445312 6.039062 -7.5 5.71875 -7.5 C 5.195312 -7.5 4.726562 -7.414062 4.3125 -7.25 C 3.90625 -7.082031 3.582031 -6.859375 3.34375 -6.578125 C 3.101562 -6.304688 2.914062 -6.007812 2.78125 -5.6875 C 2.65625 -5.375 2.59375 -5.054688 2.59375 -4.734375 C 2.59375 -4.015625 2.863281 -3.367188 3.40625 -2.796875 C 3.945312 -2.234375 4.71875 -1.953125 5.71875 -1.953125 Z M 5.71875 -1.953125 "/></g></g></g><g fill="#000000" fill-opacity="1"><g transform="translate(230.894087, 150.748549)"><g><path d="M 1.234375 -0.6875 C 0.585938 -1.269531 0.265625 -2.015625 0.265625 -2.921875 C 0.265625 -3.835938 0.601562 -4.585938 1.28125 -5.171875 C 1.957031 -5.753906 2.796875 -6.046875 3.796875 -6.046875 C 4.785156 -6.046875 5.617188 -5.75 6.296875 -5.15625 C 6.972656 -4.570312 7.3125 -3.828125 7.3125 -2.921875 C 7.3125 -2.023438 6.976562 -1.285156 6.3125 -0.703125 C 5.65625 -0.117188 4.816406 0.171875 3.796875 0.171875 C 2.742188 0.171875 1.890625 -0.113281 1.234375 -0.6875 Z M 2.8125 -3.921875 C 2.550781 -3.660156 2.421875 -3.328125 2.421875 -2.921875 C 2.421875 -2.523438 2.546875 -2.195312 2.796875 -1.9375 C 3.046875 -1.6875 3.378906 -1.5625 3.796875 -1.5625 C 4.191406 -1.5625 4.515625 -1.691406 4.765625 -1.953125 C 5.023438 -2.210938 5.15625 -2.539062 5.15625 -2.9375 C 5.15625 -3.332031 5.019531 -3.660156 4.75 -3.921875 C 4.488281 -4.179688 4.171875 -4.3125 3.796875 -4.3125 C 3.398438 -4.3125 3.070312 -4.179688 2.8125 -3.921875 Z M 2.8125 -3.921875 "/></g></g></g><g fill="#000000" fill-opacity="1"><g transform="translate(238.46278, 150.748549)"><g><path d="M 0.6875 0 L 0.6875 -5.875 L 2.71875 -5.875 L 2.71875 -5.25 L 2.734375 -5.25 C 3.265625 -5.78125 3.828125 -6.046875 4.421875 -6.046875 C 4.710938 -6.046875 5 -6.003906 5.28125 -5.921875 C 5.570312 -5.847656 5.847656 -5.734375 6.109375 -5.578125 C 6.367188 -5.421875 6.582031 -5.191406 6.75 -4.890625 C 6.914062 -4.597656 7 -4.257812 7 -3.875 L 7 0 L 4.96875 0 L 4.96875 -3.328125 C 4.96875 -3.628906 4.867188 -3.894531 4.671875 -4.125 C 4.484375 -4.351562 4.234375 -4.46875 3.921875 -4.46875 C 3.609375 -4.46875 3.328125 -4.347656 3.078125 -4.109375 C 2.835938 -3.867188 2.71875 -3.609375 2.71875 -3.328125 L 2.71875 0 Z M 0.6875 0 "/></g></g></g><g fill="#000000" fill-opacity="1"><g transform="translate(246.031472, 150.748549)"><g><path d="M 0.6875 0 L 0.6875 -5.875 L 2.71875 -5.875 L 2.71875 -5.25 L 2.734375 -5.25 C 3.265625 -5.78125 3.828125 -6.046875 4.421875 -6.046875 C 4.710938 -6.046875 5 -6.003906 5.28125 -5.921875 C 5.570312 -5.847656 5.847656 -5.734375 6.109375 -5.578125 C 6.367188 -5.421875 6.582031 -5.191406 6.75 -4.890625 C 6.914062 -4.597656 7 -4.257812 7 -3.875 L 7 0 L 4.96875 0 L 4.96875 -3.328125 C 4.96875 -3.628906 4.867188 -3.894531 4.671875 -4.125 C 4.484375 -4.351562 4.234375 -4.46875 3.921875 -4.46875 C 3.609375 -4.46875 3.328125 -4.347656 3.078125 -4.109375 C 2.835938 -3.867188 2.71875 -3.609375 2.71875 -3.328125 L 2.71875 0 Z M 0.6875 0 "/></g></g></g><g fill="#000000" fill-opacity="1"><g transform="translate(253.600165, 150.748549)"><g><path d="M 6.625 -2.65625 L 2.375 -2.65625 C 2.375 -2.238281 2.503906 -1.929688 2.765625 -1.734375 C 3.035156 -1.535156 3.328125 -1.4375 3.640625 -1.4375 C 3.972656 -1.4375 4.234375 -1.476562 4.421875 -1.5625 C 4.609375 -1.65625 4.828125 -1.832031 5.078125 -2.09375 L 6.546875 -1.359375 C 5.929688 -0.335938 4.914062 0.171875 3.5 0.171875 C 2.613281 0.171875 1.851562 -0.128906 1.21875 -0.734375 C 0.582031 -1.347656 0.265625 -2.082031 0.265625 -2.9375 C 0.265625 -3.789062 0.582031 -4.519531 1.21875 -5.125 C 1.851562 -5.738281 2.613281 -6.046875 3.5 -6.046875 C 4.425781 -6.046875 5.179688 -5.773438 5.765625 -5.234375 C 6.347656 -4.703125 6.640625 -3.9375 6.640625 -2.9375 C 6.640625 -2.789062 6.632812 -2.695312 6.625 -2.65625 Z M 2.421875 -3.78125 L 4.65625 -3.78125 C 4.613281 -4.082031 4.492188 -4.316406 4.296875 -4.484375 C 4.109375 -4.648438 3.859375 -4.734375 3.546875 -4.734375 C 3.210938 -4.734375 2.945312 -4.644531 2.75 -4.46875 C 2.550781 -4.289062 2.441406 -4.0625 2.421875 -3.78125 Z M 2.421875 -3.78125 "/></g></g></g><g fill="#000000" fill-opacity="1"><g transform="translate(260.504739, 150.748549)"><g><path d="M 3.8125 -4.390625 C 3.425781 -4.390625 3.097656 -4.242188 2.828125 -3.953125 C 2.554688 -3.671875 2.421875 -3.332031 2.421875 -2.9375 C 2.421875 -2.539062 2.554688 -2.195312 2.828125 -1.90625 C 3.097656 -1.625 3.425781 -1.484375 3.8125 -1.484375 C 4 -1.484375 4.171875 -1.503906 4.328125 -1.546875 C 4.492188 -1.597656 4.617188 -1.644531 4.703125 -1.6875 L 4.796875 -1.765625 L 5.484375 -0.359375 C 5.429688 -0.316406 5.359375 -0.265625 5.265625 -0.203125 C 5.171875 -0.148438 4.953125 -0.078125 4.609375 0.015625 C 4.265625 0.117188 3.898438 0.171875 3.515625 0.171875 C 2.648438 0.171875 1.890625 -0.128906 1.234375 -0.734375 C 0.585938 -1.347656 0.265625 -2.078125 0.265625 -2.921875 C 0.265625 -3.773438 0.585938 -4.507812 1.234375 -5.125 C 1.890625 -5.738281 2.648438 -6.046875 3.515625 -6.046875 C 3.898438 -6.046875 4.253906 -6 4.578125 -5.90625 C 4.910156 -5.8125 5.148438 -5.722656 5.296875 -5.640625 L 5.484375 -5.5 L 4.796875 -4.109375 C 4.546875 -4.296875 4.21875 -4.390625 3.8125 -4.390625 Z M 3.8125 -4.390625 "/></g></g></g><g fill="#000000" fill-opacity="1"><g transform="translate(266.126874, 150.748549)"><g><path d="M 1.03125 -5.875 L 1.03125 -8.0625 L 3.0625 -8.0625 L 3.0625 -5.875 L 4.296875 -5.875 L 4.296875 -4.328125 L 3.0625 -4.328125 L 3.0625 -2.46875 C 3.0625 -1.925781 3.210938 -1.65625 3.515625 -1.65625 C 3.585938 -1.65625 3.664062 -1.664062 3.75 -1.6875 C 3.832031 -1.71875 3.898438 -1.75 3.953125 -1.78125 L 4.015625 -1.828125 L 4.53125 -0.1875 C 4.09375 0.0507812 3.59375 0.171875 3.03125 0.171875 C 2.65625 0.171875 2.328125 0.101562 2.046875 -0.03125 C 1.773438 -0.164062 1.566406 -0.34375 1.421875 -0.5625 C 1.285156 -0.789062 1.1875 -1.03125 1.125 -1.28125 C 1.0625 -1.53125 1.03125 -1.796875 1.03125 -2.078125 L 1.03125 -4.328125 L 0.1875 -4.328125 L 0.1875 -5.875 Z M 1.03125 -5.875 "/></g></g></g><g fill="#000000" fill-opacity="1"><g transform="translate(173.284479, 165.725642)"><g><path d="M 3.050781 0.128906 C 4.597656 0.128906 5.546875 -0.605469 5.546875 -1.832031 C 5.546875 -2.867188 4.867188 -3.480469 3.246094 -3.863281 C 2.25 -4.09375 1.90625 -4.34375 1.90625 -4.746094 C 1.90625 -5.171875 2.289062 -5.433594 2.914062 -5.433594 C 3.589844 -5.433594 4 -5.082031 4 -4.496094 L 5.425781 -4.496094 C 5.425781 -5.804688 4.4375 -6.644531 2.894531 -6.644531 C 1.394531 -6.644531 0.464844 -5.910156 0.464844 -4.71875 C 0.464844 -3.65625 1.183594 -3.023438 2.707031 -2.699219 C 3.628906 -2.503906 4.046875 -2.234375 4.046875 -1.777344 C 4.046875 -1.339844 3.65625 -1.089844 3.042969 -1.089844 C 2.328125 -1.089844 1.859375 -1.453125 1.859375 -2.074219 L 0.410156 -2.074219 C 0.410156 -0.726562 1.414062 0.128906 3.050781 0.128906 Z M 3.050781 0.128906 "/></g></g></g><g fill="#000000" fill-opacity="1"><g transform="translate(179.248858, 165.725642)"><g><path d="M 2.652344 0.128906 C 3.292969 0.128906 3.871094 -0.09375 4.261719 -0.550781 L 4.410156 0 L 5.460938 0 L 5.460938 -4.886719 L 4.046875 -4.886719 L 4.046875 -2.335938 C 4.046875 -1.5625 3.628906 -1.089844 2.988281 -1.089844 C 2.390625 -1.089844 2.027344 -1.507812 2.027344 -2.222656 L 2.027344 -4.886719 L 0.613281 -4.886719 L 0.613281 -2.085938 C 0.613281 -0.726562 1.386719 0.128906 2.652344 0.128906 Z M 2.652344 0.128906 "/></g></g></g><g fill="#000000" fill-opacity="1"><g transform="translate(185.417938, 165.725642)"><g><path d="M 0.707031 0 L 2.121094 0 L 2.121094 -2.640625 C 2.121094 -3.351562 2.511719 -3.804688 3.117188 -3.804688 C 3.703125 -3.804688 4.066406 -3.367188 4.066406 -2.679688 L 4.066406 0 L 5.460938 0 L 5.460938 -2.640625 C 5.460938 -3.351562 5.851562 -3.804688 6.457031 -3.804688 C 7.042969 -3.804688 7.40625 -3.367188 7.40625 -2.679688 L 7.40625 0 L 8.820312 0 L 8.820312 -2.847656 C 8.820312 -4.1875 8.019531 -5.015625 6.773438 -5.015625 C 6.03125 -5.015625 5.414062 -4.726562 5.015625 -4.214844 C 4.671875 -4.734375 4.101562 -5.015625 3.40625 -5.015625 C 2.78125 -5.015625 2.25 -4.800781 1.898438 -4.382812 L 1.757812 -4.886719 L 0.707031 -4.886719 Z M 0.707031 0 "/></g></g></g><g fill="#000000" fill-opacity="1"><g transform="translate(194.852999, 165.725642)"><g><path d="M 0.707031 0 L 2.121094 0 L 2.121094 -2.640625 C 2.121094 -3.351562 2.511719 -3.804688 3.117188 -3.804688 C 3.703125 -3.804688 4.066406 -3.367188 4.066406 -2.679688 L 4.066406 0 L 5.460938 0 L 5.460938 -2.640625 C 5.460938 -3.351562 5.851562 -3.804688 6.457031 -3.804688 C 7.042969 -3.804688 7.40625 -3.367188 7.40625 -2.679688 L 7.40625 0 L 8.820312 0 L 8.820312 -2.847656 C 8.820312 -4.1875 8.019531 -5.015625 6.773438 -5.015625 C 6.03125 -5.015625 5.414062 -4.726562 5.015625 -4.214844 C 4.671875 -4.734375 4.101562 -5.015625 3.40625 -5.015625 C 2.78125 -5.015625 2.25 -4.800781 1.898438 -4.382812 L 1.757812 -4.886719 L 0.707031 -4.886719 Z M 0.707031 0 "/></g></g></g><g fill="#000000" fill-opacity="1"><g transform="translate(204.28806, 165.725642)"><g><path d="M 0.707031 0 L 2.121094 0 L 2.121094 -4.886719 L 0.707031 -4.886719 Z M 0.503906 -6.46875 C 0.503906 -5.945312 0.875 -5.582031 1.414062 -5.582031 C 1.953125 -5.582031 2.328125 -5.945312 2.328125 -6.46875 C 2.328125 -6.988281 1.953125 -7.351562 1.414062 -7.351562 C 0.875 -7.351562 0.503906 -6.988281 0.503906 -6.46875 Z M 0.503906 -6.46875 "/></g></g></g><g fill="#000000" fill-opacity="1"><g transform="translate(207.116724, 165.725642)"><g><path d="M 3.0625 0 L 3.953125 0 L 3.953125 -1.226562 L 3.367188 -1.226562 C 2.808594 -1.226562 2.550781 -1.5 2.550781 -2.066406 L 2.550781 -3.730469 L 3.890625 -3.730469 L 3.890625 -4.886719 L 2.550781 -4.886719 L 2.550781 -6.152344 L 1.453125 -6.152344 L 1.367188 -5.519531 C 1.292969 -5.015625 1.152344 -4.886719 0.625 -4.886719 L 0.1875 -4.886719 L 0.1875 -3.730469 L 1.136719 -3.730469 L 1.136719 -1.851562 C 1.136719 -0.660156 1.824219 0 3.0625 0 Z M 3.0625 0 "/></g></g></g><g fill="#000000" fill-opacity="1"><g transform="translate(211.46206, 165.725642)"><g/></g></g><g fill="#000000" fill-opacity="1"><g transform="translate(213.648685, 165.725642)"><g><path d="M 0.472656 0 L 5.359375 0 L 5.359375 -1.292969 L 2.808594 -1.292969 L 4.039062 -2.363281 C 4.921875 -3.097656 5.238281 -3.824219 5.238281 -4.550781 C 5.238281 -5.816406 4.28125 -6.644531 2.894531 -6.644531 C 1.460938 -6.644531 0.566406 -5.777344 0.53125 -4.328125 L 1.878906 -4.328125 C 1.90625 -4.996094 2.28125 -5.378906 2.867188 -5.378906 C 3.433594 -5.378906 3.816406 -5.015625 3.816406 -4.484375 C 3.816406 -4.085938 3.601562 -3.742188 3.164062 -3.351562 L 0.472656 -1.042969 Z M 0.472656 0 "/></g></g></g><g fill="#000000" fill-opacity="1"><g transform="translate(219.63167, 165.725642)"><g><path d="M 3.265625 0.128906 C 5.015625 0.128906 6.066406 -1.144531 6.066406 -3.257812 C 6.066406 -5.367188 5.015625 -6.644531 3.265625 -6.644531 C 1.515625 -6.644531 0.464844 -5.367188 0.464844 -3.257812 C 0.464844 -1.144531 1.515625 0.128906 3.265625 0.128906 Z M 1.898438 -3.257812 C 1.898438 -4.550781 2.390625 -5.324219 3.265625 -5.324219 C 4.132812 -5.324219 4.625 -4.550781 4.625 -3.257812 C 4.625 -1.964844 4.132812 -1.191406 3.265625 -1.191406 C 2.390625 -1.191406 1.898438 -1.964844 1.898438 -3.257812 Z M 1.898438 -3.257812 "/></g></g></g><g fill="#000000" fill-opacity="1"><g transform="translate(226.154334, 165.725642)"><g><path d="M 0.472656 0 L 5.359375 0 L 5.359375 -1.292969 L 2.808594 -1.292969 L 4.039062 -2.363281 C 4.921875 -3.097656 5.238281 -3.824219 5.238281 -4.550781 C 5.238281 -5.816406 4.28125 -6.644531 2.894531 -6.644531 C 1.460938 -6.644531 0.566406 -5.777344 0.53125 -4.328125 L 1.878906 -4.328125 C 1.90625 -4.996094 2.28125 -5.378906 2.867188 -5.378906 C 3.433594 -5.378906 3.816406 -5.015625 3.816406 -4.484375 C 3.816406 -4.085938 3.601562 -3.742188 3.164062 -3.351562 L 0.472656 -1.042969 Z M 0.472656 0 "/></g></g></g><g fill="#000000" fill-opacity="1"><g transform="translate(232.137319, 165.725642)"><g><path d="M 2.875 0.128906 C 4.335938 0.128906 5.285156 -0.6875 5.285156 -1.964844 C 5.285156 -3.042969 4.578125 -3.824219 3.5 -3.992188 L 5.015625 -5.507812 L 5.015625 -6.511719 L 0.578125 -6.511719 L 0.578125 -5.238281 L 3.089844 -5.238281 L 1.710938 -3.84375 L 1.710938 -2.976562 L 2.855469 -2.976562 C 3.46875 -2.976562 3.871094 -2.625 3.871094 -2.074219 C 3.871094 -1.527344 3.46875 -1.171875 2.855469 -1.171875 C 2.25 -1.171875 1.859375 -1.507812 1.832031 -2.039062 L 0.417969 -2.039062 C 0.472656 -0.699219 1.40625 0.128906 2.875 0.128906 Z M 2.875 0.128906 "/></g></g></g></svg>