<svg xmlns="http://www.w3.org/2000/svg" xmlns:xlink="http://www.w3.org/1999/xlink" width="500" zoomAndPan="magnify" viewBox="0 0 375 374.999991" height="500" preserveAspectRatio="xMidYMid meet" version="1.0"><defs><g/><clipPath id="d983dce329"><path d="M 21.460938 126.25 L 169.960938 126.25 L 169.960938 193.75 L 21.460938 193.75 Z M 21.460938 126.25 " clip-rule="nonzero"/></clipPath><clipPath id="383f21cf84"><path d="M 54 126.25 L 136 126.25 L 136 193.75 L 54 193.75 Z M 54 126.25 " clip-rule="nonzero"/></clipPath></defs><g clip-path="url(#d983dce329)"><path fill="#ff9800" d="M 135.800781 126.25 C 112.941406 126.25 90.949219 154.6875 90.023438 155.894531 L 90.375 156.167969 C 85.121094 163.070312 69.121094 180.25 55.503906 180.25 C 44.355469 180.25 35.289062 171.167969 35.289062 160 C 35.289062 149.058594 44.167969 139.976562 55.078125 139.753906 L 54.808594 126.253906 C 36.613281 126.625 21.8125 141.761719 21.8125 160 C 21.8125 178.609375 36.925781 193.75 55.503906 193.75 C 78.429688 193.75 99.050781 167.089844 101.328125 164.046875 L 100.976562 163.785156 C 106.457031 156.796875 122.640625 139.75 135.800781 139.75 C 146.949219 139.75 156.015625 148.832031 156.015625 160 C 156.015625 171.167969 146.949219 180.25 135.800781 180.25 L 135.800781 193.75 C 154.378906 193.75 169.496094 178.609375 169.496094 160 C 169.496094 141.390625 154.378906 126.25 135.800781 126.25 Z M 135.800781 126.25 " fill-opacity="1" fill-rule="nonzero"/></g><g clip-path="url(#383f21cf84)"><path fill="#ff9800" d="M 135.800781 193.75 C 112.878906 193.75 92.257812 167.089844 89.980469 164.046875 L 86.054688 158.804688 C 78.695312 150.84375 66.105469 139.75 55.503906 139.75 L 55.058594 139.753906 L 54.824219 126.253906 L 55.503906 126.25 C 77.824219 126.25 98.941406 152.847656 101.273438 155.878906 L 106.417969 162.5625 C 113.765625 170.355469 125.472656 180.25 135.800781 180.25 Z M 135.800781 193.75 " fill-opacity="1" fill-rule="nonzero"/></g><path fill="#ffde59" d="M 95.652344 170.816406 C 92.625 167.496094 90.601562 164.875 89.976562 164.046875 L 87.066406 160.160156 C 84.511719 163.058594 81.164062 166.488281 77.367188 169.703125 L 79.199219 172.148438 C 80.308594 173.625 82.632812 176.601562 85.941406 180.214844 C 89.804688 176.953125 93.085938 173.636719 95.652344 170.816406 Z M 95.652344 170.816406 " fill-opacity="1" fill-rule="nonzero"/><path fill="#ffde59" d="M 101.273438 155.878906 L 104.320312 159.835938 C 105.695312 158.304688 107.277344 156.636719 109.039062 154.914062 L 106.601562 151.753906 C 105.570312 150.417969 103.4375 147.742188 100.433594 144.492188 C 98.644531 146.207031 97.046875 147.835938 95.664062 149.324219 C 98.648438 152.546875 100.644531 155.066406 101.273438 155.878906 Z M 101.273438 155.878906 " fill-opacity="1" fill-rule="nonzero"/><g fill="#000000" fill-opacity="1"><g transform="translate(172.334848, 153.480019)"><g><path d="M 1.140625 -15.734375 L 5.703125 -15.734375 C 7.890625 -15.734375 9.757812 -14.984375 11.3125 -13.484375 C 12.863281 -11.992188 13.640625 -10.125 13.640625 -7.875 C 13.640625 -5.613281 12.863281 -3.734375 11.3125 -2.234375 C 9.769531 -0.742188 7.898438 0 5.703125 0 L 1.140625 0 Z M 4.734375 -3.203125 L 5.28125 -3.203125 C 6.59375 -3.203125 7.664062 -3.644531 8.5 -4.53125 C 9.332031 -5.414062 9.753906 -6.523438 9.765625 -7.859375 C 9.765625 -9.191406 9.347656 -10.300781 8.515625 -11.1875 C 7.679688 -12.082031 6.601562 -12.53125 5.28125 -12.53125 L 4.734375 -12.53125 Z M 4.734375 -3.203125 "/></g></g></g><g fill="#000000" fill-opacity="1"><g transform="translate(186.414559, 153.480019)"><g><path d="M 11.046875 -4.421875 L 3.953125 -4.421875 C 3.953125 -3.734375 4.171875 -3.222656 4.609375 -2.890625 C 5.054688 -2.566406 5.539062 -2.40625 6.0625 -2.40625 C 6.613281 -2.40625 7.046875 -2.476562 7.359375 -2.625 C 7.679688 -2.769531 8.046875 -3.054688 8.453125 -3.484375 L 10.890625 -2.265625 C 9.878906 -0.566406 8.1875 0.28125 5.8125 0.28125 C 4.34375 0.28125 3.078125 -0.222656 2.015625 -1.234375 C 0.960938 -2.242188 0.4375 -3.457031 0.4375 -4.875 C 0.4375 -6.300781 0.960938 -7.523438 2.015625 -8.546875 C 3.078125 -9.566406 4.34375 -10.078125 5.8125 -10.078125 C 7.363281 -10.078125 8.625 -9.628906 9.59375 -8.734375 C 10.570312 -7.835938 11.0625 -6.554688 11.0625 -4.890625 C 11.0625 -4.660156 11.054688 -4.503906 11.046875 -4.421875 Z M 4.046875 -6.296875 L 7.765625 -6.296875 C 7.691406 -6.804688 7.488281 -7.195312 7.15625 -7.46875 C 6.832031 -7.738281 6.421875 -7.875 5.921875 -7.875 C 5.359375 -7.875 4.910156 -7.726562 4.578125 -7.4375 C 4.242188 -7.144531 4.066406 -6.765625 4.046875 -6.296875 Z M 4.046875 -6.296875 "/></g></g></g><g fill="#000000" fill-opacity="1"><g transform="translate(197.918708, 153.480019)"><g><path d="M 3.625 -9.78125 L 6.015625 -4.46875 L 8.390625 -9.78125 L 12.40625 -9.78125 L 7.15625 0 L 4.859375 0 L -0.375 -9.78125 Z M 3.625 -9.78125 "/></g></g></g><g fill="#000000" fill-opacity="1"><g transform="translate(209.937968, 153.480019)"><g><path d="M 0.4375 -7.875 C 0.4375 -10.15625 1.210938 -12.082031 2.765625 -13.65625 C 4.316406 -15.238281 6.1875 -16.03125 8.375 -16.03125 C 10.570312 -16.03125 12.441406 -15.242188 13.984375 -13.671875 C 15.523438 -12.097656 16.296875 -10.164062 16.296875 -7.875 C 16.296875 -5.570312 15.535156 -3.632812 14.015625 -2.0625 C 12.503906 -0.5 10.625 0.28125 8.375 0.28125 C 6.070312 0.28125 4.171875 -0.492188 2.671875 -2.046875 C 1.179688 -3.609375 0.4375 -5.550781 0.4375 -7.875 Z M 4.3125 -7.875 C 4.3125 -7.050781 4.4375 -6.296875 4.6875 -5.609375 C 4.945312 -4.929688 5.394531 -4.359375 6.03125 -3.890625 C 6.664062 -3.421875 7.445312 -3.1875 8.375 -3.1875 C 9.707031 -3.1875 10.710938 -3.644531 11.390625 -4.5625 C 12.078125 -5.476562 12.421875 -6.582031 12.421875 -7.875 C 12.421875 -9.164062 12.070312 -10.269531 11.375 -11.1875 C 10.6875 -12.113281 9.6875 -12.578125 8.375 -12.578125 C 7.070312 -12.578125 6.066406 -12.113281 5.359375 -11.1875 C 4.660156 -10.269531 4.3125 -9.164062 4.3125 -7.875 Z M 4.3125 -7.875 "/></g></g></g><g fill="#000000" fill-opacity="1"><g transform="translate(226.669549, 153.480019)"><g><path d="M 11.21875 -8.578125 C 12.132812 -7.578125 12.59375 -6.351562 12.59375 -4.90625 C 12.59375 -3.457031 12.132812 -2.226562 11.21875 -1.21875 C 10.300781 -0.21875 9.140625 0.28125 7.734375 0.28125 C 6.429688 0.28125 5.359375 -0.125 4.515625 -0.9375 L 4.515625 4.953125 L 1.140625 4.953125 L 1.140625 -9.78125 L 4.484375 -9.78125 L 4.484375 -8.6875 L 4.515625 -8.6875 C 5.359375 -9.613281 6.429688 -10.078125 7.734375 -10.078125 C 9.140625 -10.078125 10.300781 -9.578125 11.21875 -8.578125 Z M 8.34375 -3.234375 C 8.78125 -3.671875 9 -4.226562 9 -4.90625 C 9 -5.582031 8.789062 -6.128906 8.375 -6.546875 C 7.957031 -6.972656 7.40625 -7.1875 6.71875 -7.1875 C 6.050781 -7.1875 5.503906 -6.96875 5.078125 -6.53125 C 4.648438 -6.101562 4.4375 -5.5625 4.4375 -4.90625 C 4.4375 -4.226562 4.65625 -3.671875 5.09375 -3.234375 C 5.539062 -2.804688 6.082031 -2.59375 6.71875 -2.59375 C 7.363281 -2.59375 7.90625 -2.804688 8.34375 -3.234375 Z M 8.34375 -3.234375 "/></g></g></g><g fill="#000000" fill-opacity="1"><g transform="translate(239.699952, 153.480019)"><g><path d="M 5.40625 -10.078125 C 5.957031 -10.078125 6.503906 -10.007812 7.046875 -9.875 C 7.597656 -9.75 8.007812 -9.625 8.28125 -9.5 L 8.6875 -9.3125 L 7.578125 -7.09375 C 6.804688 -7.5 6.082031 -7.703125 5.40625 -7.703125 C 5.019531 -7.703125 4.742188 -7.660156 4.578125 -7.578125 C 4.421875 -7.492188 4.34375 -7.335938 4.34375 -7.109375 C 4.34375 -7.066406 4.347656 -7.019531 4.359375 -6.96875 C 4.378906 -6.914062 4.40625 -6.863281 4.4375 -6.8125 C 4.476562 -6.769531 4.515625 -6.734375 4.546875 -6.703125 C 4.578125 -6.671875 4.628906 -6.632812 4.703125 -6.59375 C 4.785156 -6.5625 4.847656 -6.535156 4.890625 -6.515625 C 4.929688 -6.492188 5.003906 -6.460938 5.109375 -6.421875 C 5.210938 -6.390625 5.289062 -6.363281 5.34375 -6.34375 C 5.394531 -6.320312 5.476562 -6.289062 5.59375 -6.25 C 5.71875 -6.21875 5.8125 -6.195312 5.875 -6.1875 C 6.269531 -6.070312 6.613281 -5.941406 6.90625 -5.796875 C 7.195312 -5.660156 7.503906 -5.46875 7.828125 -5.21875 C 8.148438 -4.976562 8.398438 -4.675781 8.578125 -4.3125 C 8.765625 -3.945312 8.859375 -3.523438 8.859375 -3.046875 C 8.859375 -0.828125 7.3125 0.28125 4.21875 0.28125 C 3.519531 0.28125 2.851562 0.175781 2.21875 -0.03125 C 1.59375 -0.25 1.140625 -0.46875 0.859375 -0.6875 L 0.4375 -1.03125 L 1.8125 -3.34375 C 1.914062 -3.25 2.050781 -3.140625 2.21875 -3.015625 C 2.382812 -2.898438 2.679688 -2.738281 3.109375 -2.53125 C 3.546875 -2.320312 3.921875 -2.21875 4.234375 -2.21875 C 4.929688 -2.21875 5.28125 -2.453125 5.28125 -2.921875 C 5.28125 -3.140625 5.191406 -3.304688 5.015625 -3.421875 C 4.835938 -3.546875 4.535156 -3.679688 4.109375 -3.828125 C 3.679688 -3.984375 3.347656 -4.125 3.109375 -4.25 C 2.492188 -4.570312 2.007812 -4.929688 1.65625 -5.328125 C 1.300781 -5.734375 1.125 -6.265625 1.125 -6.921875 C 1.125 -7.910156 1.507812 -8.679688 2.28125 -9.234375 C 3.050781 -9.796875 4.09375 -10.078125 5.40625 -10.078125 Z M 5.40625 -10.078125 "/></g></g></g><g fill="#000000" fill-opacity="1"><g transform="translate(249.086418, 153.480019)"><g/></g></g><g fill="#000000" fill-opacity="1"><g transform="translate(254.294761, 153.480019)"><g><path d="M 9.515625 -3.25 C 10.066406 -3.25 10.597656 -3.328125 11.109375 -3.484375 C 11.628906 -3.648438 12.007812 -3.8125 12.25 -3.96875 L 12.609375 -4.21875 L 14.140625 -1.15625 C 14.085938 -1.125 14.015625 -1.078125 13.921875 -1.015625 C 13.835938 -0.953125 13.632812 -0.832031 13.3125 -0.65625 C 12.988281 -0.488281 12.640625 -0.335938 12.265625 -0.203125 C 11.898438 -0.078125 11.414062 0.03125 10.8125 0.125 C 10.21875 0.226562 9.601562 0.28125 8.96875 0.28125 C 7.5 0.28125 6.109375 -0.078125 4.796875 -0.796875 C 3.492188 -1.515625 2.441406 -2.5 1.640625 -3.75 C 0.835938 -5.007812 0.4375 -6.375 0.4375 -7.84375 C 0.4375 -8.945312 0.671875 -10.003906 1.140625 -11.015625 C 1.609375 -12.035156 2.234375 -12.910156 3.015625 -13.640625 C 3.804688 -14.367188 4.722656 -14.945312 5.765625 -15.375 C 6.804688 -15.8125 7.875 -16.03125 8.96875 -16.03125 C 9.988281 -16.03125 10.925781 -15.90625 11.78125 -15.65625 C 12.632812 -15.414062 13.242188 -15.175781 13.609375 -14.9375 L 14.140625 -14.578125 L 12.609375 -11.515625 C 12.523438 -11.597656 12.390625 -11.691406 12.203125 -11.796875 C 12.023438 -11.910156 11.671875 -12.054688 11.140625 -12.234375 C 10.609375 -12.410156 10.066406 -12.5 9.515625 -12.5 C 8.648438 -12.5 7.875 -12.359375 7.1875 -12.078125 C 6.5 -11.796875 5.953125 -11.425781 5.546875 -10.96875 C 5.148438 -10.507812 4.847656 -10.015625 4.640625 -9.484375 C 4.429688 -8.960938 4.328125 -8.425781 4.328125 -7.875 C 4.328125 -6.675781 4.773438 -5.601562 5.671875 -4.65625 C 6.566406 -3.71875 7.847656 -3.25 9.515625 -3.25 Z M 9.515625 -3.25 "/></g></g></g><g fill="#000000" fill-opacity="1"><g transform="translate(268.660643, 153.480019)"><g><path d="M 2.0625 -1.15625 C 0.976562 -2.125 0.4375 -3.363281 0.4375 -4.875 C 0.4375 -6.394531 1 -7.640625 2.125 -8.609375 C 3.257812 -9.585938 4.660156 -10.078125 6.328125 -10.078125 C 7.972656 -10.078125 9.359375 -9.585938 10.484375 -8.609375 C 11.609375 -7.628906 12.171875 -6.382812 12.171875 -4.875 C 12.171875 -3.375 11.617188 -2.140625 10.515625 -1.171875 C 9.421875 -0.203125 8.023438 0.28125 6.328125 0.28125 C 4.578125 0.28125 3.15625 -0.195312 2.0625 -1.15625 Z M 4.6875 -6.53125 C 4.25 -6.101562 4.03125 -5.550781 4.03125 -4.875 C 4.03125 -4.207031 4.238281 -3.660156 4.65625 -3.234375 C 5.070312 -2.804688 5.625 -2.59375 6.3125 -2.59375 C 6.976562 -2.59375 7.519531 -2.804688 7.9375 -3.234375 C 8.363281 -3.671875 8.578125 -4.222656 8.578125 -4.890625 C 8.578125 -5.554688 8.359375 -6.101562 7.921875 -6.53125 C 7.484375 -6.96875 6.945312 -7.1875 6.3125 -7.1875 C 5.664062 -7.1875 5.125 -6.96875 4.6875 -6.53125 Z M 4.6875 -6.53125 "/></g></g></g><g fill="#000000" fill-opacity="1"><g transform="translate(281.271333, 153.480019)"><g><path d="M 1.140625 0 L 1.140625 -9.78125 L 4.515625 -9.78125 L 4.515625 -8.75 L 4.5625 -8.75 C 5.4375 -9.632812 6.367188 -10.078125 7.359375 -10.078125 C 7.847656 -10.078125 8.328125 -10.007812 8.796875 -9.875 C 9.273438 -9.75 9.734375 -9.550781 10.171875 -9.28125 C 10.617188 -9.019531 10.976562 -8.644531 11.25 -8.15625 C 11.519531 -7.664062 11.65625 -7.097656 11.65625 -6.453125 L 11.65625 0 L 8.28125 0 L 8.28125 -5.53125 C 8.28125 -6.039062 8.117188 -6.484375 7.796875 -6.859375 C 7.472656 -7.242188 7.050781 -7.4375 6.53125 -7.4375 C 6.019531 -7.4375 5.554688 -7.238281 5.140625 -6.84375 C 4.722656 -6.445312 4.515625 -6.007812 4.515625 -5.53125 L 4.515625 0 Z M 1.140625 0 "/></g></g></g><g fill="#000000" fill-opacity="1"><g transform="translate(293.882024, 153.480019)"><g><path d="M 1.140625 0 L 1.140625 -9.78125 L 4.515625 -9.78125 L 4.515625 -8.75 L 4.5625 -8.75 C 5.4375 -9.632812 6.367188 -10.078125 7.359375 -10.078125 C 7.847656 -10.078125 8.328125 -10.007812 8.796875 -9.875 C 9.273438 -9.75 9.734375 -9.550781 10.171875 -9.28125 C 10.617188 -9.019531 10.976562 -8.644531 11.25 -8.15625 C 11.519531 -7.664062 11.65625 -7.097656 11.65625 -6.453125 L 11.65625 0 L 8.28125 0 L 8.28125 -5.53125 C 8.28125 -6.039062 8.117188 -6.484375 7.796875 -6.859375 C 7.472656 -7.242188 7.050781 -7.4375 6.53125 -7.4375 C 6.019531 -7.4375 5.554688 -7.238281 5.140625 -6.84375 C 4.722656 -6.445312 4.515625 -6.007812 4.515625 -5.53125 L 4.515625 0 Z M 1.140625 0 "/></g></g></g><g fill="#000000" fill-opacity="1"><g transform="translate(306.492714, 153.480019)"><g><path d="M 11.046875 -4.421875 L 3.953125 -4.421875 C 3.953125 -3.734375 4.171875 -3.222656 4.609375 -2.890625 C 5.054688 -2.566406 5.539062 -2.40625 6.0625 -2.40625 C 6.613281 -2.40625 7.046875 -2.476562 7.359375 -2.625 C 7.679688 -2.769531 8.046875 -3.054688 8.453125 -3.484375 L 10.890625 -2.265625 C 9.878906 -0.566406 8.1875 0.28125 5.8125 0.28125 C 4.34375 0.28125 3.078125 -0.222656 2.015625 -1.234375 C 0.960938 -2.242188 0.4375 -3.457031 0.4375 -4.875 C 0.4375 -6.300781 0.960938 -7.523438 2.015625 -8.546875 C 3.078125 -9.566406 4.34375 -10.078125 5.8125 -10.078125 C 7.363281 -10.078125 8.625 -9.628906 9.59375 -8.734375 C 10.570312 -7.835938 11.0625 -6.554688 11.0625 -4.890625 C 11.0625 -4.660156 11.054688 -4.503906 11.046875 -4.421875 Z M 4.046875 -6.296875 L 7.765625 -6.296875 C 7.691406 -6.804688 7.488281 -7.195312 7.15625 -7.46875 C 6.832031 -7.738281 6.421875 -7.875 5.921875 -7.875 C 5.359375 -7.875 4.910156 -7.726562 4.578125 -7.4375 C 4.242188 -7.144531 4.066406 -6.765625 4.046875 -6.296875 Z M 4.046875 -6.296875 "/></g></g></g><g fill="#000000" fill-opacity="1"><g transform="translate(317.996864, 153.480019)"><g><path d="M 6.359375 -7.3125 C 5.722656 -7.3125 5.175781 -7.070312 4.71875 -6.59375 C 4.257812 -6.125 4.03125 -5.5625 4.03125 -4.90625 C 4.03125 -4.226562 4.257812 -3.65625 4.71875 -3.1875 C 5.175781 -2.71875 5.722656 -2.484375 6.359375 -2.484375 C 6.660156 -2.484375 6.945312 -2.519531 7.21875 -2.59375 C 7.488281 -2.664062 7.691406 -2.742188 7.828125 -2.828125 L 8 -2.9375 L 9.140625 -0.59375 C 9.046875 -0.53125 8.921875 -0.445312 8.765625 -0.34375 C 8.609375 -0.25 8.242188 -0.125 7.671875 0.03125 C 7.109375 0.195312 6.503906 0.28125 5.859375 0.28125 C 4.421875 0.28125 3.15625 -0.222656 2.0625 -1.234375 C 0.976562 -2.242188 0.4375 -3.453125 0.4375 -4.859375 C 0.4375 -6.285156 0.976562 -7.507812 2.0625 -8.53125 C 3.15625 -9.5625 4.421875 -10.078125 5.859375 -10.078125 C 6.503906 -10.078125 7.097656 -10 7.640625 -9.84375 C 8.191406 -9.6875 8.582031 -9.535156 8.8125 -9.390625 L 9.140625 -9.15625 L 8 -6.84375 C 7.570312 -7.15625 7.023438 -7.3125 6.359375 -7.3125 Z M 6.359375 -7.3125 "/></g></g></g><g fill="#000000" fill-opacity="1"><g transform="translate(327.364253, 153.480019)"><g><path d="M 1.71875 -9.78125 L 1.71875 -13.4375 L 5.09375 -13.4375 L 5.09375 -9.78125 L 7.15625 -9.78125 L 7.15625 -7.21875 L 5.09375 -7.21875 L 5.09375 -4.109375 C 5.09375 -3.203125 5.347656 -2.75 5.859375 -2.75 C 5.984375 -2.75 6.113281 -2.773438 6.25 -2.828125 C 6.394531 -2.878906 6.503906 -2.925781 6.578125 -2.96875 L 6.703125 -3.046875 L 7.53125 -0.328125 C 6.8125 0.078125 5.988281 0.28125 5.0625 0.28125 C 4.425781 0.28125 3.878906 0.171875 3.421875 -0.046875 C 2.960938 -0.265625 2.613281 -0.5625 2.375 -0.9375 C 2.132812 -1.3125 1.960938 -1.707031 1.859375 -2.125 C 1.765625 -2.539062 1.71875 -2.984375 1.71875 -3.453125 L 1.71875 -7.21875 L 0.3125 -7.21875 L 0.3125 -9.78125 Z M 1.71875 -9.78125 "/></g></g></g><g fill="#000000" fill-opacity="1"><g transform="translate(172.718902, 172.335219)"><g><path d="M 4.9375 0.210938 C 7.4375 0.210938 8.972656 -0.980469 8.972656 -2.964844 C 8.972656 -4.636719 7.875 -5.632812 5.253906 -6.25 C 3.644531 -6.625 3.085938 -7.03125 3.085938 -7.679688 C 3.085938 -8.371094 3.703125 -8.792969 4.714844 -8.792969 C 5.8125 -8.792969 6.476562 -8.222656 6.476562 -7.273438 L 8.777344 -7.273438 C 8.777344 -9.394531 7.183594 -10.75 4.683594 -10.75 C 2.257812 -10.75 0.753906 -9.5625 0.753906 -7.632812 C 0.753906 -5.917969 1.914062 -4.894531 4.382812 -4.367188 C 5.871094 -4.050781 6.550781 -3.613281 6.550781 -2.875 C 6.550781 -2.167969 5.917969 -1.761719 4.921875 -1.761719 C 3.765625 -1.761719 3.011719 -2.347656 3.011719 -3.359375 L 0.664062 -3.359375 C 0.664062 -1.175781 2.289062 0.210938 4.9375 0.210938 Z M 4.9375 0.210938 "/></g></g></g><g fill="#000000" fill-opacity="1"><g transform="translate(182.366892, 172.335219)"><g><path d="M 4.292969 0.210938 C 5.332031 0.210938 6.265625 -0.152344 6.894531 -0.886719 L 7.136719 0 L 8.839844 0 L 8.839844 -7.90625 L 6.550781 -7.90625 L 6.550781 -3.78125 C 6.550781 -2.53125 5.871094 -1.761719 4.832031 -1.761719 C 3.871094 -1.761719 3.28125 -2.4375 3.28125 -3.597656 L 3.28125 -7.90625 L 0.992188 -7.90625 L 0.992188 -3.371094 C 0.992188 -1.175781 2.242188 0.210938 4.292969 0.210938 Z M 4.292969 0.210938 "/></g></g></g><g fill="#000000" fill-opacity="1"><g transform="translate(192.346012, 172.335219)"><g><path d="M 1.144531 0 L 3.433594 0 L 3.433594 -4.277344 C 3.433594 -5.421875 4.066406 -6.160156 5.042969 -6.160156 C 5.992188 -6.160156 6.578125 -5.449219 6.578125 -4.335938 L 6.578125 0 L 8.839844 0 L 8.839844 -4.277344 C 8.839844 -5.421875 9.472656 -6.160156 10.449219 -6.160156 C 11.398438 -6.160156 11.984375 -5.449219 11.984375 -4.335938 L 11.984375 0 L 14.273438 0 L 14.273438 -4.609375 C 14.273438 -6.777344 12.980469 -8.117188 10.960938 -8.117188 C 9.757812 -8.117188 8.761719 -7.648438 8.117188 -6.820312 C 7.558594 -7.664062 6.640625 -8.117188 5.511719 -8.117188 C 4.503906 -8.117188 3.644531 -7.769531 3.070312 -7.09375 L 2.847656 -7.90625 L 1.144531 -7.90625 Z M 1.144531 0 "/></g></g></g><g fill="#000000" fill-opacity="1"><g transform="translate(207.608202, 172.335219)"><g><path d="M 1.144531 0 L 3.433594 0 L 3.433594 -4.277344 C 3.433594 -5.421875 4.066406 -6.160156 5.042969 -6.160156 C 5.992188 -6.160156 6.578125 -5.449219 6.578125 -4.335938 L 6.578125 0 L 8.839844 0 L 8.839844 -4.277344 C 8.839844 -5.421875 9.472656 -6.160156 10.449219 -6.160156 C 11.398438 -6.160156 11.984375 -5.449219 11.984375 -4.335938 L 11.984375 0 L 14.273438 0 L 14.273438 -4.609375 C 14.273438 -6.777344 12.980469 -8.117188 10.960938 -8.117188 C 9.757812 -8.117188 8.761719 -7.648438 8.117188 -6.820312 C 7.558594 -7.664062 6.640625 -8.117188 5.511719 -8.117188 C 4.503906 -8.117188 3.644531 -7.769531 3.070312 -7.09375 L 2.847656 -7.90625 L 1.144531 -7.90625 Z M 1.144531 0 "/></g></g></g><g fill="#000000" fill-opacity="1"><g transform="translate(222.870392, 172.335219)"><g><path d="M 1.144531 0 L 3.433594 0 L 3.433594 -7.90625 L 1.144531 -7.90625 Z M 0.8125 -10.464844 C 0.8125 -9.621094 1.414062 -9.035156 2.289062 -9.035156 C 3.160156 -9.035156 3.765625 -9.621094 3.765625 -10.464844 C 3.765625 -11.308594 3.160156 -11.894531 2.289062 -11.894531 C 1.414062 -11.894531 0.8125 -11.308594 0.8125 -10.464844 Z M 0.8125 -10.464844 "/></g></g></g><g fill="#000000" fill-opacity="1"><g transform="translate(227.446045, 172.335219)"><g><path d="M 4.953125 0 L 6.398438 0 L 6.398438 -1.988281 L 5.449219 -1.988281 C 4.546875 -1.988281 4.125 -2.425781 4.125 -3.34375 L 4.125 -6.039062 L 6.292969 -6.039062 L 6.292969 -7.90625 L 4.125 -7.90625 L 4.125 -9.953125 L 2.347656 -9.953125 L 2.214844 -8.929688 C 2.09375 -8.117188 1.867188 -7.90625 1.007812 -7.90625 L 0.300781 -7.90625 L 0.300781 -6.039062 L 1.835938 -6.039062 L 1.835938 -2.996094 C 1.835938 -1.070312 2.953125 0 4.953125 0 Z M 4.953125 0 "/></g></g></g><g fill="#000000" fill-opacity="1"><g transform="translate(234.475078, 172.335219)"><g/></g></g><g fill="#000000" fill-opacity="1"><g transform="translate(238.012173, 172.335219)"><g><path d="M 0.769531 0 L 8.671875 0 L 8.671875 -2.09375 L 4.546875 -2.09375 L 6.535156 -3.824219 C 7.964844 -5.015625 8.476562 -6.1875 8.476562 -7.363281 C 8.476562 -9.410156 6.925781 -10.75 4.683594 -10.75 C 2.363281 -10.75 0.917969 -9.351562 0.859375 -7 L 3.042969 -7 C 3.085938 -8.085938 3.6875 -8.703125 4.636719 -8.703125 C 5.554688 -8.703125 6.171875 -8.117188 6.171875 -7.257812 C 6.171875 -6.609375 5.828125 -6.054688 5.121094 -5.421875 L 0.769531 -1.6875 Z M 0.769531 0 "/></g></g></g><g fill="#000000" fill-opacity="1"><g transform="translate(247.690271, 172.335219)"><g><path d="M 5.285156 0.210938 C 8.117188 0.210938 9.816406 -1.851562 9.816406 -5.269531 C 9.816406 -8.6875 8.117188 -10.75 5.285156 -10.75 C 2.453125 -10.75 0.753906 -8.6875 0.753906 -5.269531 C 0.753906 -1.851562 2.453125 0.210938 5.285156 0.210938 Z M 3.070312 -5.269531 C 3.070312 -7.363281 3.871094 -8.613281 5.285156 -8.613281 C 6.683594 -8.613281 7.484375 -7.363281 7.484375 -5.269531 C 7.484375 -3.175781 6.683594 -1.925781 5.285156 -1.925781 C 3.871094 -1.925781 3.070312 -3.175781 3.070312 -5.269531 Z M 3.070312 -5.269531 "/></g></g></g><g fill="#000000" fill-opacity="1"><g transform="translate(258.241351, 172.335219)"><g><path d="M 0.769531 0 L 8.671875 0 L 8.671875 -2.09375 L 4.546875 -2.09375 L 6.535156 -3.824219 C 7.964844 -5.015625 8.476562 -6.1875 8.476562 -7.363281 C 8.476562 -9.410156 6.925781 -10.75 4.683594 -10.75 C 2.363281 -10.75 0.917969 -9.351562 0.859375 -7 L 3.042969 -7 C 3.085938 -8.085938 3.6875 -8.703125 4.636719 -8.703125 C 5.554688 -8.703125 6.171875 -8.117188 6.171875 -7.257812 C 6.171875 -6.609375 5.828125 -6.054688 5.121094 -5.421875 L 0.769531 -1.6875 Z M 0.769531 0 "/></g></g></g><g fill="#000000" fill-opacity="1"><g transform="translate(267.919449, 172.335219)"><g><path d="M 4.652344 0.210938 C 7.015625 0.210938 8.550781 -1.113281 8.550781 -3.175781 C 8.550781 -4.921875 7.410156 -6.1875 5.660156 -6.460938 L 8.117188 -8.914062 L 8.117188 -10.539062 L 0.933594 -10.539062 L 0.933594 -8.476562 L 5 -8.476562 L 2.769531 -6.21875 L 2.769531 -4.820312 L 4.621094 -4.820312 C 5.617188 -4.820312 6.265625 -4.246094 6.265625 -3.359375 C 6.265625 -2.46875 5.617188 -1.898438 4.621094 -1.898438 C 3.644531 -1.898438 3.011719 -2.4375 2.964844 -3.296875 L 0.675781 -3.296875 C 0.769531 -1.128906 2.273438 0.210938 4.652344 0.210938 Z M 4.652344 0.210938 "/></g></g></g></svg>